<mxfile host="app.diagrams.net" modified="2024-02-23T10:14:42.096Z" agent="Mozilla/5.0 (Windows NT 10.0; Win64; x64) AppleWebKit/537.36 (KHTML, like Gecko) Chrome/122.0.0.0 Safari/537.36" etag="kqKEZKsLlR4EY1bMCr2r" version="23.1.6" type="device">
  <diagram name="Page-1" id="9X3Gw-Bjxn4goot_nM99">
    <mxGraphModel dx="1290" dy="557" grid="1" gridSize="10" guides="1" tooltips="1" connect="1" arrows="1" fold="1" page="1" pageScale="1" pageWidth="850" pageHeight="1100" math="0" shadow="0">
      <root>
        <mxCell id="0" />
        <mxCell id="1" parent="0" />
        <mxCell id="5H6fv8PIYBsv11hiVK37-13" style="edgeStyle=entityRelationEdgeStyle;rounded=0;orthogonalLoop=1;jettySize=auto;html=1;startArrow=none;endArrow=none;entryX=0.057;entryY=1;entryDx=0;entryDy=0;entryPerimeter=0;" parent="1" source="5H6fv8PIYBsv11hiVK37-3" target="5H6fv8PIYBsv11hiVK37-11" edge="1">
          <mxGeometry relative="1" as="geometry">
            <mxPoint x="340" y="284" as="targetPoint" />
          </mxGeometry>
        </mxCell>
        <mxCell id="5H6fv8PIYBsv11hiVK37-3" value="Reg.&lt;br&gt;Interface" style="whiteSpace=wrap;html=1;align=center;verticalAlign=middle;treeFolding=1;treeMoving=1;newEdgeStyle={&quot;edgeStyle&quot;:&quot;elbowEdgeStyle&quot;,&quot;startArrow&quot;:&quot;none&quot;,&quot;endArrow&quot;:&quot;none&quot;};" parent="1" vertex="1" collapsed="1">
          <mxGeometry x="100" y="360" width="100" height="60" as="geometry" />
        </mxCell>
        <mxCell id="5H6fv8PIYBsv11hiVK37-16" style="edgeStyle=entityRelationEdgeStyle;rounded=0;orthogonalLoop=1;jettySize=auto;html=1;startArrow=none;endArrow=none;entryX=0.929;entryY=-0.033;entryDx=0;entryDy=0;entryPerimeter=0;" parent="1" source="5H6fv8PIYBsv11hiVK37-5" target="5H6fv8PIYBsv11hiVK37-11" edge="1">
          <mxGeometry relative="1" as="geometry">
            <Array as="points">
              <mxPoint x="460" y="250" />
            </Array>
          </mxGeometry>
        </mxCell>
        <mxCell id="5H6fv8PIYBsv11hiVK37-5" value="viewing attendance record" style="whiteSpace=wrap;html=1;align=center;verticalAlign=middle;treeFolding=1;treeMoving=1;newEdgeStyle={&quot;edgeStyle&quot;:&quot;elbowEdgeStyle&quot;,&quot;startArrow&quot;:&quot;none&quot;,&quot;endArrow&quot;:&quot;none&quot;};" parent="1" vertex="1">
          <mxGeometry x="580" y="100" width="100" height="60" as="geometry" />
        </mxCell>
        <mxCell id="5H6fv8PIYBsv11hiVK37-6" value="Dashboard for updating school details and approving schools" style="whiteSpace=wrap;html=1;align=center;verticalAlign=middle;treeFolding=1;treeMoving=1;newEdgeStyle={&quot;edgeStyle&quot;:&quot;elbowEdgeStyle&quot;,&quot;startArrow&quot;:&quot;none&quot;,&quot;endArrow&quot;:&quot;none&quot;};" parent="1" vertex="1">
          <mxGeometry x="340" y="100" width="100" height="60" as="geometry" />
        </mxCell>
        <mxCell id="5H6fv8PIYBsv11hiVK37-14" style="edgeStyle=entityRelationEdgeStyle;rounded=0;orthogonalLoop=1;jettySize=auto;html=1;startArrow=none;endArrow=none;entryX=0.05;entryY=0.033;entryDx=0;entryDy=0;entryPerimeter=0;" parent="1" source="5H6fv8PIYBsv11hiVK37-7" target="5H6fv8PIYBsv11hiVK37-11" edge="1">
          <mxGeometry relative="1" as="geometry" />
        </mxCell>
        <mxCell id="5H6fv8PIYBsv11hiVK37-7" value="Registration Interface" style="whiteSpace=wrap;html=1;align=center;verticalAlign=middle;treeFolding=1;treeMoving=1;newEdgeStyle={&quot;edgeStyle&quot;:&quot;elbowEdgeStyle&quot;,&quot;startArrow&quot;:&quot;none&quot;,&quot;endArrow&quot;:&quot;none&quot;};" parent="1" vertex="1">
          <mxGeometry x="100" y="100" width="100" height="60" as="geometry" />
        </mxCell>
        <mxCell id="5H6fv8PIYBsv11hiVK37-8" value="Query raising to administration" style="whiteSpace=wrap;html=1;align=center;verticalAlign=middle;treeFolding=1;treeMoving=1;newEdgeStyle={&quot;edgeStyle&quot;:&quot;elbowEdgeStyle&quot;,&quot;startArrow&quot;:&quot;none&quot;,&quot;endArrow&quot;:&quot;none&quot;};" parent="1" vertex="1">
          <mxGeometry x="590" y="360" width="100" height="60" as="geometry" />
        </mxCell>
        <mxCell id="5H6fv8PIYBsv11hiVK37-9" value="Dashboard for recording attendance details" style="whiteSpace=wrap;html=1;align=center;verticalAlign=middle;treeFolding=1;treeMoving=1;newEdgeStyle={&quot;edgeStyle&quot;:&quot;elbowEdgeStyle&quot;,&quot;startArrow&quot;:&quot;none&quot;,&quot;endArrow&quot;:&quot;none&quot;};" parent="1" vertex="1">
          <mxGeometry x="350" y="360" width="100" height="60" as="geometry" />
        </mxCell>
        <mxCell id="5H6fv8PIYBsv11hiVK37-11" value="Equipment Rental" style="whiteSpace=wrap;html=1;rounded=1;arcSize=50;align=center;verticalAlign=middle;strokeWidth=1;autosize=1;spacing=4;treeFolding=1;treeMoving=1;newEdgeStyle={&quot;edgeStyle&quot;:&quot;entityRelationEdgeStyle&quot;,&quot;startArrow&quot;:&quot;none&quot;,&quot;endArrow&quot;:&quot;none&quot;,&quot;segment&quot;:10,&quot;curved&quot;:1,&quot;sourcePerimeterSpacing&quot;:0,&quot;targetPerimeterSpacing&quot;:0};" parent="1" vertex="1">
          <mxGeometry x="335" y="250" width="140" height="30" as="geometry" />
        </mxCell>
        <mxCell id="5H6fv8PIYBsv11hiVK37-15" style="edgeStyle=elbowEdgeStyle;rounded=0;orthogonalLoop=1;jettySize=auto;html=1;startArrow=none;endArrow=none;entryX=0.443;entryY=-0.1;entryDx=0;entryDy=0;entryPerimeter=0;" parent="1" source="5H6fv8PIYBsv11hiVK37-6" target="5H6fv8PIYBsv11hiVK37-11" edge="1">
          <mxGeometry relative="1" as="geometry" />
        </mxCell>
        <mxCell id="5H6fv8PIYBsv11hiVK37-18" style="edgeStyle=elbowEdgeStyle;rounded=0;orthogonalLoop=1;jettySize=auto;html=1;startArrow=none;endArrow=none;entryX=0.457;entryY=1.133;entryDx=0;entryDy=0;entryPerimeter=0;" parent="1" source="5H6fv8PIYBsv11hiVK37-9" target="5H6fv8PIYBsv11hiVK37-11" edge="1">
          <mxGeometry relative="1" as="geometry" />
        </mxCell>
        <mxCell id="5H6fv8PIYBsv11hiVK37-19" style="edgeStyle=entityRelationEdgeStyle;rounded=0;orthogonalLoop=1;jettySize=auto;html=1;startArrow=none;endArrow=none;entryX=0.914;entryY=0.933;entryDx=0;entryDy=0;entryPerimeter=0;" parent="1" source="5H6fv8PIYBsv11hiVK37-8" target="5H6fv8PIYBsv11hiVK37-11" edge="1">
          <mxGeometry relative="1" as="geometry" />
        </mxCell>
      </root>
    </mxGraphModel>
  </diagram>
</mxfile>
